<?xml version="1.0" standalone="no"?>
<!DOCTYPE svg PUBLIC "-//W3C//DTD SVG 20010904//EN"
 "http://www.w3.org/TR/2001/REC-SVG-20010904/DTD/svg10.dtd">
<svg version="1.0" xmlns="http://www.w3.org/2000/svg"
 width="1280.000000pt" height="1170.000000pt" viewBox="0 0 1280.000000 1170.000000"
 preserveAspectRatio="xMidYMid meet">
<g transform="translate(0.000000,1170.000000) scale(0.100000,-0.100000)"
fill="#000000" stroke="none">
<path d="M4330 11679 c-808 -69 -1468 -267 -2114 -636 -865 -494 -1561 -1279
-1914 -2158 -167 -418 -245 -762 -288 -1282 -17 -203 -17 -222 0 -420 26 -309
53 -492 106 -718 161 -680 524 -1344 1024 -1875 1068 -1133 2639 -1668 4241
-1444 1245 174 2381 832 3116 1806 446 590 711 1245 806 1993 25 194 25 711 0
900 -67 503 -188 908 -401 1335 -522 1046 -1485 1863 -2658 2254 -421 141
-777 209 -1315 251 -235 18 -328 18 -603 -6z m768 -1273 c679 -89 1280 -347
1782 -765 104 -86 298 -279 384 -381 306 -362 515 -765 621 -1200 59 -239 79
-409 78 -670 -1 -460 -92 -844 -299 -1260 -450 -903 -1364 -1557 -2416 -1729
-208 -34 -344 -44 -578 -44 -234 0 -370 10 -578 44 -971 159 -1834 734 -2314
1541 -267 451 -399 929 -400 1448 0 214 10 326 48 528 141 754 608 1448 1289
1914 461 316 1023 523 1570 577 61 6 126 13 145 15 85 10 552 -3 668 -18z"/>
<path d="M8859 4528 c-256 -341 -652 -705 -1000 -919 -54 -34 -101 -64 -104
-68 -2 -4 373 -352 833 -772 460 -420 1327 -1212 1926 -1759 599 -547 1093
-995 1098 -995 4 0 272 240 594 534 l585 535 -43 42 c-83 83 -3813 3484 -3820
3484 -4 0 -35 -37 -69 -82z"/>
</g>
</svg>
